<svg width="105" height="30" viewBox="0 0 105 30" fill="none" xmlns="http://www.w3.org/2000/svg">
<g filter="url(#filter0_d_0_68)">
<path fill-rule="evenodd" clip-rule="evenodd" d="M11.05 17.302C8.938 17.302 7.574 16.158 6.694 14.882V17.06H5V1H6.694V7.974C7.618 6.61 8.96 5.444 11.05 5.444C13.778 5.444 16.484 7.6 16.484 11.34V11.384C16.484 15.102 13.8 17.302 11.05 17.302ZM10.742 15.784C12.942 15.784 14.746 14.156 14.746 11.406V11.362C14.746 8.678 12.898 6.962 10.742 6.962C8.63 6.962 6.628 8.744 6.628 11.34V11.384C6.628 14.024 8.63 15.784 10.742 15.784ZM20.62 12.066C20.862 14.464 22.622 15.85 24.624 15.85C26.186 15.85 27.286 15.212 28.21 14.244L29.266 15.19C28.122 16.466 26.736 17.324 24.58 17.324C21.456 17.324 18.904 14.926 18.904 11.384C18.904 8.084 21.214 5.444 24.36 5.444C27.726 5.444 29.662 8.128 29.662 11.472C29.662 11.626 29.662 11.802 29.64 12.066H20.62ZM20.62 10.702H27.946C27.748 8.634 26.56 6.874 24.316 6.874C22.358 6.874 20.862 8.502 20.62 10.702ZM33.644 12.066C33.886 14.464 35.646 15.85 37.648 15.85C39.21 15.85 40.31 15.212 41.234 14.244L42.29 15.19C41.146 16.466 39.76 17.324 37.604 17.324C34.48 17.324 31.928 14.926 31.928 11.384C31.928 8.084 34.238 5.444 37.384 5.444C40.75 5.444 42.686 8.128 42.686 11.472C42.686 11.626 42.686 11.802 42.664 12.066H33.644ZM33.644 10.702H40.97C40.772 8.634 39.584 6.874 37.34 6.874C35.382 6.874 33.886 8.502 33.644 10.702ZM45.656 20.58V5.686H47.35V7.974C48.274 6.61 49.616 5.444 51.706 5.444C54.434 5.444 57.14 7.6 57.14 11.34V11.384C57.14 15.102 54.456 17.302 51.706 17.302C49.594 17.302 48.23 16.158 47.35 14.882V20.58H45.656ZM51.398 15.784C53.598 15.784 55.402 14.156 55.402 11.406V11.362C55.402 8.678 53.554 6.962 51.398 6.962C49.286 6.962 47.284 8.744 47.284 11.34V11.384C47.284 14.024 49.286 15.784 51.398 15.784ZM66.886 17.28C65.104 17.28 64.004 16.466 63.212 15.52V17.06H59.868V1H63.212V6.962C64.026 5.862 65.148 5.048 66.886 5.048C69.636 5.048 72.254 7.204 72.254 11.142V11.186C72.254 15.124 69.68 17.28 66.886 17.28ZM66.028 14.442C67.59 14.442 68.91 13.166 68.91 11.186V11.142C68.91 9.184 67.59 7.886 66.028 7.886C64.466 7.886 63.168 9.184 63.168 11.142V11.186C63.168 13.144 64.466 14.442 66.028 14.442ZM74.324 17.06V13.54H77.888V17.06H74.324ZM80.814 3.97V1H84.334V3.97H80.814ZM80.902 17.06V5.268H84.246V17.06H80.902ZM93.178 17.324C89.526 17.324 86.82 14.618 86.82 11.23V11.186C86.82 7.798 89.548 5.048 93.222 5.048C96.874 5.048 99.58 7.754 99.58 11.142V11.186C99.58 14.574 96.852 17.324 93.178 17.324ZM93.222 14.442C95.136 14.442 96.28 12.968 96.28 11.23V11.186C96.28 9.448 95.026 7.93 93.178 7.93C91.264 7.93 90.12 9.404 90.12 11.142V11.186C90.12 12.924 91.374 14.442 93.222 14.442Z" fill="white"/>
<path d="M6.694 14.882L7.10561 14.5981L6.194 13.2763V14.882H6.694ZM6.694 17.06V17.56H7.194V17.06H6.694ZM5 17.06H4.5V17.56H5V17.06ZM5 1V0.5H4.5V1H5ZM6.694 1H7.194V0.5H6.694V1ZM6.694 7.974H6.194V9.6036L7.10796 8.25442L6.694 7.974ZM20.62 12.066V11.566H20.067L20.1225 12.1162L20.62 12.066ZM28.21 14.244L28.5436 13.8716L28.1828 13.5483L27.8483 13.8988L28.21 14.244ZM29.266 15.19L29.6383 15.5238L29.9722 15.1513L29.5996 14.8176L29.266 15.19ZM29.64 12.066V12.566H30.1001L30.1383 12.1075L29.64 12.066ZM20.62 10.702L20.123 10.6473L20.062 11.202H20.62V10.702ZM27.946 10.702V11.202H28.4962L28.4437 10.6543L27.946 10.702ZM33.644 12.066V11.566H33.091L33.1465 12.1162L33.644 12.066ZM41.234 14.244L41.5676 13.8716L41.2068 13.5483L40.8723 13.8988L41.234 14.244ZM42.29 15.19L42.6623 15.5238L42.9962 15.1513L42.6236 14.8176L42.29 15.19ZM42.664 12.066V12.566H43.1241L43.1623 12.1075L42.664 12.066ZM33.644 10.702L33.147 10.6473L33.086 11.202H33.644V10.702ZM40.97 10.702V11.202H41.5202L41.4677 10.6543L40.97 10.702ZM45.656 20.58H45.156V21.08H45.656V20.58ZM45.656 5.686V5.186H45.156V5.686H45.656ZM47.35 5.686H47.85V5.186H47.35V5.686ZM47.35 7.974H46.85V9.6036L47.764 8.25442L47.35 7.974ZM47.35 14.882L47.7616 14.5981L46.85 13.2763V14.882H47.35ZM47.35 20.58V21.08H47.85V20.58H47.35ZM63.212 15.52L63.5954 15.199L62.712 14.1439V15.52H63.212ZM63.212 17.06V17.56H63.712V17.06H63.212ZM59.868 17.06H59.368V17.56H59.868V17.06ZM59.868 1V0.5H59.368V1H59.868ZM63.212 1H63.712V0.5H63.212V1ZM63.212 6.962H62.712V8.47823L63.6139 7.25942L63.212 6.962ZM74.324 17.06H73.824V17.56H74.324V17.06ZM74.324 13.54V13.04H73.824V13.54H74.324ZM77.888 13.54H78.388V13.04H77.888V13.54ZM77.888 17.06V17.56H78.388V17.06H77.888ZM80.814 3.97H80.314V4.47H80.814V3.97ZM80.814 1V0.5H80.314V1H80.814ZM84.334 1H84.834V0.5H84.334V1ZM84.334 3.97V4.47H84.834V3.97H84.334ZM80.902 17.06H80.402V17.56H80.902V17.06ZM80.902 5.268V4.768H80.402V5.268H80.902ZM84.246 5.268H84.746V4.768H84.246V5.268ZM84.246 17.06V17.56H84.746V17.06H84.246ZM11.05 16.802C9.15394 16.802 7.92596 15.7876 7.10561 14.5981L6.28239 15.1659C7.22204 16.5284 8.72206 17.802 11.05 17.802V16.802ZM6.194 14.882V17.06H7.194V14.882H6.194ZM6.694 16.56H5V17.56H6.694V16.56ZM5.5 17.06V1H4.5V17.06H5.5ZM5 1.5H6.694V0.5H5V1.5ZM6.194 1V7.974H7.194V1H6.194ZM7.10796 8.25442C7.97909 6.96847 9.18651 5.944 11.05 5.944V4.944C8.73349 4.944 7.25691 6.25153 6.28004 7.69358L7.10796 8.25442ZM11.05 5.944C13.507 5.944 15.984 7.88125 15.984 11.34H16.984C16.984 7.31875 14.049 4.944 11.05 4.944V5.944ZM15.984 11.34V11.384H16.984V11.34H15.984ZM15.984 11.384C15.984 14.8259 13.5239 16.802 11.05 16.802V17.802C14.0761 17.802 16.984 15.3781 16.984 11.384H15.984ZM10.742 16.284C11.9679 16.284 13.1018 15.8287 13.9284 14.9738C14.756 14.118 15.246 12.8933 15.246 11.406H14.246C14.246 12.6687 13.834 13.633 13.2096 14.2787C12.5842 14.9253 11.7161 15.284 10.742 15.284V16.284ZM15.246 11.406V11.362H14.246V11.406H15.246ZM15.246 11.362C15.246 8.42288 13.1947 6.462 10.742 6.462V7.462C12.6013 7.462 14.246 8.93312 14.246 11.362H15.246ZM10.742 6.462C8.35048 6.462 6.128 8.47124 6.128 11.34H7.128C7.128 9.01676 8.90952 7.462 10.742 7.462V6.462ZM6.128 11.34V11.384H7.128V11.34H6.128ZM6.128 11.384C6.128 14.2968 8.35048 16.284 10.742 16.284V15.284C8.90952 15.284 7.128 13.7512 7.128 11.384H6.128ZM20.1225 12.1162C20.3907 14.7732 22.3689 16.35 24.624 16.35V15.35C22.8751 15.35 21.3333 14.1548 21.1175 12.0158L20.1225 12.1162ZM24.624 16.35C26.3518 16.35 27.5755 15.6328 28.5717 14.5892L27.8483 13.8988C26.9965 14.7912 26.0202 15.35 24.624 15.35V16.35ZM27.8764 14.6164L28.9324 15.5624L29.5996 14.8176L28.5436 13.8716L27.8764 14.6164ZM28.8937 14.8562C27.8253 16.0479 26.5674 16.824 24.58 16.824V17.824C26.9046 17.824 28.4187 16.8841 29.6383 15.5238L28.8937 14.8562ZM24.58 16.824C21.7384 16.824 19.404 14.6561 19.404 11.384H18.404C18.404 15.1959 21.1736 17.824 24.58 17.824V16.824ZM19.404 11.384C19.404 8.31208 21.5359 5.944 24.36 5.944V4.944C20.8921 4.944 18.404 7.85592 18.404 11.384H19.404ZM24.36 5.944C25.8975 5.944 27.0809 6.55128 27.8887 7.52352C28.7046 8.50556 29.162 9.89223 29.162 11.472H30.162C30.162 9.70777 29.6514 8.08044 28.6578 6.88448C27.6561 5.67871 26.1885 4.944 24.36 4.944V5.944ZM29.162 11.472C29.162 11.6222 29.162 11.7816 29.1417 12.0245L30.1383 12.1075C30.162 11.8224 30.162 11.6298 30.162 11.472H29.162ZM29.64 11.566H20.62V12.566H29.64V11.566ZM20.62 11.202H27.946V10.202H20.62V11.202ZM28.4437 10.6543C28.3376 9.54558 27.9632 8.48195 27.2769 7.686C26.58 6.87764 25.5839 6.374 24.316 6.374V7.374C25.2921 7.374 26.012 7.75036 26.5196 8.339C27.0378 8.94005 27.3564 9.79042 27.4483 10.7497L28.4437 10.6543ZM24.316 6.374C22.035 6.374 20.3848 8.26774 20.123 10.6473L21.117 10.7567C21.3392 8.73626 22.681 7.374 24.316 7.374V6.374ZM33.1465 12.1162C33.4147 14.7732 35.3929 16.35 37.648 16.35V15.35C35.8991 15.35 34.3573 14.1548 34.1415 12.0158L33.1465 12.1162ZM37.648 16.35C39.3758 16.35 40.5995 15.6328 41.5957 14.5892L40.8723 13.8988C40.0205 14.7912 39.0442 15.35 37.648 15.35V16.35ZM40.9004 14.6164L41.9564 15.5624L42.6236 14.8176L41.5676 13.8716L40.9004 14.6164ZM41.9177 14.8562C40.8493 16.0479 39.5914 16.824 37.604 16.824V17.824C39.9286 17.824 41.4427 16.8841 42.6623 15.5238L41.9177 14.8562ZM37.604 16.824C34.7624 16.824 32.428 14.6561 32.428 11.384H31.428C31.428 15.1959 34.1976 17.824 37.604 17.824V16.824ZM32.428 11.384C32.428 8.31208 34.5599 5.944 37.384 5.944V4.944C33.9161 4.944 31.428 7.85592 31.428 11.384H32.428ZM37.384 5.944C38.9215 5.944 40.1049 6.55128 40.9127 7.52352C41.7286 8.50556 42.186 9.89223 42.186 11.472H43.186C43.186 9.70777 42.6754 8.08044 41.6818 6.88448C40.6801 5.67871 39.2125 4.944 37.384 4.944V5.944ZM42.186 11.472C42.186 11.6222 42.186 11.7816 42.1657 12.0245L43.1623 12.1075C43.186 11.8224 43.186 11.6298 43.186 11.472H42.186ZM42.664 11.566H33.644V12.566H42.664V11.566ZM33.644 11.202H40.97V10.202H33.644V11.202ZM41.4677 10.6543C41.3616 9.54558 40.9872 8.48195 40.3009 7.686C39.604 6.87764 38.6079 6.374 37.34 6.374V7.374C38.3161 7.374 39.036 7.75036 39.5436 8.339C40.0618 8.94005 40.3804 9.79042 40.4723 10.7497L41.4677 10.6543ZM37.34 6.374C35.059 6.374 33.4088 8.26774 33.147 10.6473L34.141 10.7567C34.3632 8.73626 35.705 7.374 37.34 7.374V6.374ZM46.156 20.58V5.686H45.156V20.58H46.156ZM45.656 6.186H47.35V5.186H45.656V6.186ZM46.85 5.686V7.974H47.85V5.686H46.85ZM47.764 8.25442C48.6351 6.96847 49.8425 5.944 51.706 5.944V4.944C49.3895 4.944 47.9129 6.25153 46.936 7.69358L47.764 8.25442ZM51.706 5.944C54.163 5.944 56.64 7.88125 56.64 11.34H57.64C57.64 7.31875 54.705 4.944 51.706 4.944V5.944ZM56.64 11.34V11.384H57.64V11.34H56.64ZM56.64 11.384C56.64 14.8259 54.1799 16.802 51.706 16.802V17.802C54.7321 17.802 57.64 15.3781 57.64 11.384H56.64ZM51.706 16.802C49.8099 16.802 48.582 15.7876 47.7616 14.5981L46.9384 15.1659C47.878 16.5284 49.3781 17.802 51.706 17.802V16.802ZM46.85 14.882V20.58H47.85V14.882H46.85ZM47.35 20.08H45.656V21.08H47.35V20.08ZM51.398 16.284C52.6239 16.284 53.7578 15.8287 54.5844 14.9738C55.412 14.118 55.902 12.8933 55.902 11.406H54.902C54.902 12.6687 54.49 13.633 53.8656 14.2787C53.2402 14.9253 52.3721 15.284 51.398 15.284V16.284ZM55.902 11.406V11.362H54.902V11.406H55.902ZM55.902 11.362C55.902 8.42288 53.8507 6.462 51.398 6.462V7.462C53.2573 7.462 54.902 8.93312 54.902 11.362H55.902ZM51.398 6.462C49.0065 6.462 46.784 8.47124 46.784 11.34H47.784C47.784 9.01676 49.5655 7.462 51.398 7.462V6.462ZM46.784 11.34V11.384H47.784V11.34H46.784ZM46.784 11.384C46.784 14.2968 49.0065 16.284 51.398 16.284V15.284C49.5655 15.284 47.784 13.7512 47.784 11.384H46.784ZM66.886 16.78C65.2917 16.78 64.3212 16.066 63.5954 15.199L62.8286 15.841C63.6868 16.866 64.9163 17.78 66.886 17.78V16.78ZM62.712 15.52V17.06H63.712V15.52H62.712ZM63.212 16.56H59.868V17.56H63.212V16.56ZM60.368 17.06V1H59.368V17.06H60.368ZM59.868 1.5H63.212V0.5H59.868V1.5ZM62.712 1V6.962H63.712V1H62.712ZM63.6139 7.25942C64.3571 6.25516 65.3422 5.548 66.886 5.548V4.548C64.9538 4.548 63.6949 5.46884 62.8101 6.66458L63.6139 7.25942ZM66.886 5.548C69.3447 5.548 71.754 7.46469 71.754 11.142H72.754C72.754 6.94331 69.9273 4.548 66.886 4.548V5.548ZM71.754 11.142V11.186H72.754V11.142H71.754ZM71.754 11.186C71.754 13.0424 71.1496 14.4363 70.2575 15.363C69.3631 16.2921 68.1531 16.78 66.886 16.78V17.78C68.4129 17.78 69.8869 17.1899 70.978 16.0565C72.0714 14.9207 72.754 13.2676 72.754 11.186H71.754ZM66.028 14.942C67.9011 14.942 69.41 13.4059 69.41 11.186H68.41C68.41 12.9261 67.2789 13.942 66.028 13.942V14.942ZM69.41 11.186V11.142H68.41V11.186H69.41ZM69.41 11.142C69.41 8.94649 67.9033 7.386 66.028 7.386V8.386C67.2767 8.386 68.41 9.42151 68.41 11.142H69.41ZM66.028 7.386C64.148 7.386 62.668 8.95164 62.668 11.142H63.668C63.668 9.41636 64.784 8.386 66.028 8.386V7.386ZM62.668 11.142V11.186H63.668V11.142H62.668ZM62.668 11.186C62.668 13.3764 64.148 14.942 66.028 14.942V13.942C64.784 13.942 63.668 12.9116 63.668 11.186H62.668ZM74.824 17.06V13.54H73.824V17.06H74.824ZM74.324 14.04H77.888V13.04H74.324V14.04ZM77.388 13.54V17.06H78.388V13.54H77.388ZM77.888 16.56H74.324V17.56H77.888V16.56ZM81.314 3.97V1H80.314V3.97H81.314ZM80.814 1.5H84.334V0.5H80.814V1.5ZM83.834 1V3.97H84.834V1H83.834ZM84.334 3.47H80.814V4.47H84.334V3.47ZM81.402 17.06V5.268H80.402V17.06H81.402ZM80.902 5.768H84.246V4.768H80.902V5.768ZM83.746 5.268V17.06H84.746V5.268H83.746ZM84.246 16.56H80.902V17.56H84.246V16.56ZM93.178 16.824C89.7881 16.824 87.32 14.328 87.32 11.23H86.32C86.32 14.908 89.2639 17.824 93.178 17.824V16.824ZM87.32 11.23V11.186H86.32V11.23H87.32ZM87.32 11.186C87.32 8.08672 89.8114 5.548 93.222 5.548V4.548C89.2846 4.548 86.32 7.50928 86.32 11.186H87.32ZM93.222 5.548C96.6119 5.548 99.08 8.04397 99.08 11.142H100.08C100.08 7.46403 97.1361 4.548 93.222 4.548V5.548ZM99.08 11.142V11.186H100.08V11.142H99.08ZM99.08 11.186C99.08 14.2853 96.5886 16.824 93.178 16.824V17.824C97.1154 17.824 100.08 14.8627 100.08 11.186H99.08ZM93.222 14.942C94.3166 14.942 95.218 14.5163 95.841 13.8216C96.4584 13.1331 96.78 12.2066 96.78 11.23H95.78C95.78 11.9914 95.5296 12.6709 95.0965 13.1539C94.669 13.6307 94.0414 13.942 93.222 13.942V14.942ZM96.78 11.23V11.186H95.78V11.23H96.78ZM96.78 11.186C96.78 9.21596 95.3443 7.43 93.178 7.43V8.43C94.7077 8.43 95.78 9.68004 95.78 11.186H96.78ZM93.178 7.43C92.0834 7.43 91.182 7.85569 90.559 8.55044C89.9416 9.23892 89.62 10.1654 89.62 11.142H90.62C90.62 10.3806 90.8704 9.70108 91.3035 9.21806C91.731 8.74131 92.3586 8.43 93.178 8.43V7.43ZM89.62 11.142V11.186H90.62V11.142H89.62ZM89.62 11.186C89.62 13.156 91.0557 14.942 93.222 14.942V13.942C91.6923 13.942 90.62 12.692 90.62 11.186H89.62Z" fill="black"/>
</g>
<defs>
<filter id="filter0_d_0_68" x="0.5" y="0.5" width="103.58" height="28.58" filterUnits="userSpaceOnUse" color-interpolation-filters="sRGB">
<feFlood flood-opacity="0" result="BackgroundImageFix"/>
<feColorMatrix in="SourceAlpha" type="matrix" values="0 0 0 0 0 0 0 0 0 0 0 0 0 0 0 0 0 0 127 0" result="hardAlpha"/>
<feOffset dy="4"/>
<feGaussianBlur stdDeviation="2"/>
<feComposite in2="hardAlpha" operator="out"/>
<feColorMatrix type="matrix" values="0 0 0 0 0 0 0 0 0 0 0 0 0 0 0 0 0 0 0.25 0"/>
<feBlend mode="normal" in2="BackgroundImageFix" result="effect1_dropShadow_0_68"/>
<feBlend mode="normal" in="SourceGraphic" in2="effect1_dropShadow_0_68" result="shape"/>
</filter>
</defs>
</svg>
