<svg width="19" height="20" viewBox="0 0 19 20" fill="none" xmlns="http://www.w3.org/2000/svg">
<path fill-rule="evenodd" clip-rule="evenodd" d="M16.8324 3.30489C18.173 4.06345 19 5.44722 19 6.94888C19 7.83725 18.7106 8.69559 18.1764 9.41441C18.705 10.0149 19 10.7757 19 11.5684C19 12.8248 18.2734 13.9558 17.1473 14.5203C17.1781 14.6927 17.193 14.8599 17.193 15.0243C17.193 16.5913 16.0613 17.9352 14.5131 18.267C14.008 19.1681 13.1065 19.7892 12.0466 19.9503C12.0247 19.9536 12.0025 19.9556 11.9804 19.9565L10.7693 19.9998H10.7686C10.2742 19.9998 9.82973 19.8121 9.50147 19.509C9.17592 19.8123 8.73598 20 8.2515 20L7.01985 19.9565C6.99769 19.9556 6.97554 19.9536 6.95361 19.9503C5.89377 19.7892 4.99218 19.1684 4.48691 18.267C2.93875 17.9349 1.80702 16.5911 1.80702 15.0243C1.80702 14.8599 1.82216 14.6927 1.85268 14.5203C0.726604 13.9558 0 12.8248 0 11.5684C0 10.7757 0.295254 10.0151 0.82359 9.41441C0.289376 8.69559 0 7.83725 0 6.94866C0 5.44722 0.826981 4.06323 2.1676 3.30467C2.58969 2.71743 3.10197 2.20348 3.69157 1.77563C4.33408 1.30937 5.04802 0.959235 5.81487 0.734494C6.53311 0.253662 7.37071 0 8.24427 0C8.46627 0 9.02513 0.0512181 9.50011 0.493636C9.97487 0.0512181 10.534 0 10.7557 0C11.6293 0 12.4669 0.253662 13.1851 0.734715C13.952 0.959235 14.6657 1.30937 15.3084 1.77585C15.898 2.20392 16.4101 2.71765 16.8324 3.30489ZM7.19099 3.63957H7.18782C6.87561 3.64112 6.62399 3.8897 6.62557 4.19436C6.6267 4.40365 6.54396 5.06882 6.16144 5.36907C5.93175 5.54966 5.60304 5.58961 5.15654 5.49115C4.85224 5.42404 4.54953 5.61081 4.4808 5.90818C4.41208 6.20556 4.60333 6.50094 4.90786 6.56806C5.15428 6.62237 5.37787 6.64555 5.58043 6.64555C6.18993 6.64555 6.60726 6.43538 6.86973 6.2294C7.73809 5.54767 7.75662 4.32572 7.75572 4.18862C7.75459 3.88485 7.50184 3.63957 7.19099 3.63957ZM4.18781 11.5925C3.90341 11.4673 3.56859 11.5907 3.44018 11.8687C3.31177 12.1464 3.43837 12.4734 3.723 12.5988C3.74651 12.6091 6.06084 13.6536 6.06084 15.8087C6.06084 16.1136 6.31382 16.3606 6.62602 16.3606C6.93823 16.3606 7.19121 16.1136 7.19121 15.8087C7.19144 12.9485 4.31057 11.6466 4.18781 11.5925ZM8.9347 18.2288C8.9347 18.5968 8.62814 18.8962 8.27185 18.8966L7.09603 18.8547C6.33032 18.7279 5.69234 18.2427 5.38533 17.5517C5.30575 17.3726 5.13551 17.2481 4.93725 17.2238C3.79715 17.0843 2.93716 16.1388 2.93716 15.0246C2.93716 14.8206 2.97447 14.6097 3.05427 14.3612C3.14651 14.0742 2.98645 13.7677 2.69413 13.6724C1.75864 13.367 1.13015 12.5217 1.13015 11.5689C1.13015 10.9355 1.41749 10.3319 1.91734 9.90386C4.2918 8.60044 5.82708 10.282 5.89513 10.3589C6.00681 10.4867 6.16551 10.5522 6.32535 10.5522C6.45421 10.5522 6.58397 10.5094 6.69 10.4218C6.92829 10.2249 6.95813 9.8767 6.75647 9.64401C6.04524 8.82276 4.12519 7.65534 1.73354 8.75476C1.34401 8.22558 1.13015 7.5986 1.13015 6.9491C1.13015 5.80884 1.78011 4.75931 2.82593 4.21004C2.90687 4.16765 2.97582 4.1065 3.02714 4.0321C3.39203 3.5027 3.84214 3.04174 4.3655 2.66202C4.92391 2.25669 5.5472 1.95644 6.21751 1.76989C6.28036 1.75245 6.33981 1.72442 6.39272 1.68711C6.93507 1.30584 7.57531 1.10428 8.24382 1.10428C8.29152 1.10428 8.53952 1.11377 8.73214 1.30187C8.92453 1.48974 8.93425 1.73214 8.93425 1.77872V18.2288H8.9347ZM12.6749 10.5503C12.5451 10.5503 12.4147 10.507 12.3086 10.4182C12.0722 10.2209 12.0426 9.87538 12.2433 9.64357C12.9545 8.82187 14.8741 7.6549 17.2662 8.75432C17.656 8.22514 17.8699 7.59816 17.8699 6.94866C17.8699 5.80862 17.2201 4.75909 16.1741 4.2096C16.0931 4.16721 16.0242 4.10606 15.9729 4.03166C15.6082 3.50248 15.1579 3.04152 14.6345 2.66157C14.0759 2.25602 13.4526 1.956 12.7823 1.76945C12.7196 1.75201 12.6602 1.72397 12.6071 1.68666C12.0645 1.3054 11.4245 1.10384 10.756 1.10384C10.7083 1.10384 10.4603 1.11355 10.2676 1.30143C10.075 1.4893 10.0653 1.7317 10.0653 1.77828V18.2286C10.0653 18.5966 10.3719 18.8959 10.7487 18.8959L11.904 18.8544C12.6695 18.7277 13.3074 18.2425 13.6144 17.5515C13.694 17.3724 13.8645 17.2477 14.0628 17.2234C15.2031 17.0841 16.0628 16.1383 16.0628 15.0241C16.0628 14.8201 16.0258 14.6093 15.9457 14.3609C15.8533 14.0737 16.0133 13.7673 16.3056 13.6719C17.2411 13.3666 17.8699 12.5213 17.8699 11.5684C17.8699 10.9351 17.5825 10.3315 17.0827 9.90341C14.7057 8.5989 13.1693 10.2858 13.1044 10.3586C12.9925 10.4851 12.834 10.5503 12.6749 10.5503ZM12.3737 16.3606C12.686 16.3606 12.9389 16.1136 12.9389 15.8087C12.9389 13.6697 15.2524 12.6098 15.2781 12.5983C15.5616 12.4725 15.6878 12.1462 15.5596 11.8689C15.4314 11.591 15.0966 11.4673 14.812 11.5927C14.6894 11.6468 11.8083 12.9487 11.8083 15.8089C11.8086 16.1136 12.0615 16.3606 12.3737 16.3606ZM14.5187 5.90818C14.5875 6.20556 14.3962 6.50094 14.0917 6.56806C13.8453 6.62237 13.6215 6.64555 13.4187 6.64555C12.8092 6.64555 12.3921 6.4356 12.1296 6.2294C11.2615 5.54767 11.2429 4.32572 11.2436 4.18862C11.2454 3.88485 11.4982 3.63957 11.8088 3.63957H11.812C12.1235 3.64112 12.3749 3.8886 12.3742 4.1926C12.3751 4.42087 12.4608 5.07567 12.8408 5.37128C13.0673 5.54723 13.4044 5.58807 13.843 5.49115C14.1471 5.42448 14.45 5.61059 14.5187 5.90818Z" fill="#A1A4AC"/>
</svg>
