<svg width="20" height="20" viewBox="0 0 20 20" fill="none" xmlns="http://www.w3.org/2000/svg">
<path fill-rule="evenodd" clip-rule="evenodd" d="M10 20C15.5051 20 20 15.5051 20 10C20 4.49495 15.5051 0 10 0C4.49495 0 0 4.4697 0 10C0 15.5051 4.49495 20 10 20ZM10 1.43939C14.7222 1.43939 18.5354 5.25253 18.5354 9.97475C18.5354 14.697 14.7222 18.5354 10 18.5354C5.27778 18.5354 1.46465 14.697 1.46465 10C1.46465 5.30303 5.27778 1.43939 10 1.43939ZM7.67677 14.0657L4.84848 15.9343C4.4697 15.6061 4.14141 15.2525 3.81313 14.8737L6.84343 12.8535L7.07071 12.702C6.31313 11.9192 5.88384 10.8586 5.88384 9.74747V7.12121C5.88384 4.74747 7.80303 2.82828 10.1768 2.82828C12.5505 2.82828 14.4697 4.74747 14.4697 7.12121V9.74747C14.4697 10.9343 13.9899 12.0455 13.1566 12.8283L16.1869 14.798C15.8838 15.202 15.5556 15.5556 15.1768 15.8838L12.3485 14.0404C12.1717 13.9141 11.9697 13.8131 11.7424 13.7626H11.5657C11.2121 13.7374 10.9343 13.4848 10.8586 13.1566C10.7828 12.8283 10.9596 12.4747 11.2879 12.3485C12.3485 11.9192 13.0303 10.8838 13.0303 9.74747V7.12121C13.0303 5.55556 11.7929 4.29293 10.2273 4.29293C8.66162 4.29293 7.39899 5.55556 7.39899 7.12121V9.74747C7.39899 10.8586 8.05556 11.8687 9.06566 12.3232C9.36869 12.4747 9.54545 12.8283 9.4697 13.1566C9.39394 13.5101 9.09091 13.7374 8.73737 13.7374H8.56061C8.23232 13.7626 7.92929 13.8889 7.67677 14.0657Z" fill="#A1A4AC"/>
</svg>
