<svg width="21" height="20" viewBox="0 0 21 20" fill="none" xmlns="http://www.w3.org/2000/svg">
<path fill-rule="evenodd" clip-rule="evenodd" d="M20.1435 3.2541H6.05029L5.70773 1.79579C5.46341 0.741159 4.53999 -0.00277613 3.47867 7.7871e-06H0.844338C0.542685 7.78061e-06 0.263946 0.164337 0.11312 0.431095C-0.0377066 0.697853 -0.0377066 1.02651 0.11312 1.29327C0.263946 1.56003 0.542685 1.72436 0.844338 1.72436H3.49797C3.7773 1.72366 4.02024 1.91966 4.08418 2.19732L6.17573 11.191C6.52306 12.6896 7.83511 13.7467 9.3432 13.7431H16.2427C17.7614 13.7508 19.0819 12.6809 19.4198 11.1689L20.9782 4.31088C21.0368 4.05266 20.9758 3.78125 20.8129 3.57492C20.6499 3.3686 20.4031 3.25028 20.1435 3.2541ZM13.15 17.1942C13.15 15.6447 14.3802 14.3885 15.8977 14.3885C17.4146 14.3898 18.6441 15.6452 18.6454 17.1942C18.6454 18.7438 17.4152 20 15.8977 20C14.3802 20 13.15 18.7438 13.15 17.1942ZM14.919 17.605C15.0828 18.0094 15.4691 18.2732 15.8977 18.2732C16.4816 18.2732 16.9554 17.7905 16.9567 17.1942C16.9577 16.7566 16.7003 16.3615 16.3046 16.1934C15.909 16.0252 15.4531 16.1171 15.1497 16.4262C14.8463 16.7353 14.7552 17.2006 14.919 17.605ZM16.2427 12.0113C16.9707 12.0147 17.6043 11.5036 17.7697 10.7797L19.0893 4.97845H6.45557L7.81857 10.7797C7.98457 11.5022 8.61638 12.0126 9.3432 12.0113H16.2427ZM9.04648 14.3885C7.52991 14.3926 6.30334 15.6505 6.306 17.1992C6.30866 18.7478 7.53954 20.0013 9.05612 20C10.5727 19.9986 11.8014 18.7429 11.8014 17.1942C11.8008 16.449 11.5101 15.7346 10.9934 15.2084C10.4767 14.6821 9.77628 14.3872 9.04648 14.3885ZM8.06782 17.605C8.2316 18.0094 8.61792 18.2732 9.04648 18.2732C9.63043 18.2732 10.1042 17.7905 10.1055 17.1942C10.1065 16.7566 9.84909 16.3615 9.45343 16.1934C9.05777 16.0252 8.60186 16.1171 8.29848 16.4262C7.9951 16.7353 7.90405 17.2006 8.06782 17.605Z" fill="#14B45C"/>
</svg>
