<svg width="20" height="20" viewBox="0 0 20 20" fill="none" xmlns="http://www.w3.org/2000/svg">
<g opacity="0.9">
<path fill-rule="evenodd" clip-rule="evenodd" d="M9.97671 0C15.4639 0 19.9534 4.48952 19.9534 9.97671C19.9534 15.4639 15.4639 19.9534 9.97671 19.9534C4.48952 19.9534 0 15.4638 0 9.97671C0 4.48959 4.48952 0 9.97671 0ZM15.0274 8.29308V9.41548H16.1497V10.5379H15.0274V11.6603H13.905V10.5379H12.7826V9.41548H13.905V8.29308H15.0274ZM4.98829 7.17075C3.42945 8.66719 3.42945 11.2861 4.92596 12.7826C6.42247 14.2791 9.04137 14.2791 10.5378 12.8451C11.099 12.2839 11.4108 11.4733 11.4732 10.6627V9.78973L11.4108 9.47795H7.85664V10.725H10.1014V10.8497C10.039 11.2238 9.78959 11.598 9.54021 11.8474C8.66726 12.8451 6.9837 12.8451 6.04836 11.8474C5.05068 10.8497 5.11301 9.16616 6.04836 8.23082C6.8589 7.42021 8.10603 7.29555 8.97897 7.85671L9.35308 8.1061L10.3508 7.10842L9.72719 6.67192L9.16603 6.36014C7.73185 5.79897 6.11068 6.04836 4.98829 7.17075Z" fill="white"/>
</g>
</svg>
