<svg width="148" height="40" viewBox="0 0 148 40" fill="none" xmlns="http://www.w3.org/2000/svg">
<rect opacity="0.2" x="0.540771" y="7.88965" width="42" height="32" rx="8.448" transform="rotate(-10 0.540771 7.88965)" fill="#14B45C"/>
<path fill-rule="evenodd" clip-rule="evenodd" d="M3.87195 9.36808C3 11.0794 3 13.3196 3 17.8V22.2C3 26.6804 3 28.9206 3.87195 30.6319C4.63893 32.1372 5.86278 33.3611 7.36808 34.1281C9.07937 35 11.3196 35 15.8 35H30.2C34.6804 35 36.9206 35 38.6319 34.1281C40.1372 33.3611 41.3611 32.1372 42.1281 30.6319C43 28.9206 43 26.6804 43 22.2V17.8C43 13.3196 43 11.0794 42.1281 9.36808C41.3611 7.86278 40.1372 6.63893 38.6319 5.87195C36.9206 5 34.6804 5 30.2 5H15.8C11.3196 5 9.07937 5 7.36808 5.87195C5.86278 6.63893 4.63893 7.86278 3.87195 9.36808ZM27.6 19C27.2582 19 26.9541 19.2172 26.8432 19.5405L25.2 24.3333L21.1568 12.5405C20.9097 11.8198 19.8903 11.8198 19.6432 12.5405L17.4286 19H14.8C14.3582 19 14 19.3582 14 19.8C14 20.2418 14.3582 20.6 14.8 20.6H18C18.3418 20.6 18.6459 20.3828 18.7568 20.0595L20.4 15.2667L24.4432 27.0595C24.6903 27.7802 25.7097 27.7802 25.9568 27.0595L28.1714 20.6H30.8C31.2418 20.6 31.6 20.2418 31.6 19.8C31.6 19.3582 31.2418 19 30.8 19H27.6Z" fill="#14B45C"/>
<path fill-rule="evenodd" clip-rule="evenodd" d="M59.05 28.302C56.938 28.302 55.574 27.158 54.694 25.882V28.06H53V12H54.694V18.974C55.618 17.61 56.96 16.444 59.05 16.444C61.778 16.444 64.484 18.6 64.484 22.34V22.384C64.484 26.102 61.8 28.302 59.05 28.302ZM58.742 26.784C60.942 26.784 62.746 25.156 62.746 22.406V22.362C62.746 19.678 60.898 17.962 58.742 17.962C56.63 17.962 54.628 19.744 54.628 22.34V22.384C54.628 25.024 56.63 26.784 58.742 26.784ZM68.62 23.066C68.862 25.464 70.622 26.85 72.624 26.85C74.186 26.85 75.286 26.212 76.21 25.244L77.266 26.19C76.122 27.466 74.736 28.324 72.58 28.324C69.456 28.324 66.904 25.926 66.904 22.384C66.904 19.084 69.214 16.444 72.36 16.444C75.726 16.444 77.662 19.128 77.662 22.472C77.662 22.626 77.662 22.802 77.64 23.066H68.62ZM68.62 21.702H75.946C75.748 19.634 74.56 17.874 72.316 17.874C70.358 17.874 68.862 19.502 68.62 21.702ZM81.644 23.066C81.886 25.464 83.646 26.85 85.648 26.85C87.21 26.85 88.31 26.212 89.234 25.244L90.29 26.19C89.146 27.466 87.76 28.324 85.604 28.324C82.48 28.324 79.928 25.926 79.928 22.384C79.928 19.084 82.238 16.444 85.384 16.444C88.75 16.444 90.686 19.128 90.686 22.472C90.686 22.626 90.686 22.802 90.664 23.066H81.644ZM81.644 21.702H88.97C88.772 19.634 87.584 17.874 85.34 17.874C83.382 17.874 81.886 19.502 81.644 21.702ZM93.656 31.58V16.686H95.35V18.974C96.274 17.61 97.616 16.444 99.706 16.444C102.434 16.444 105.14 18.6 105.14 22.34V22.384C105.14 26.102 102.456 28.302 99.706 28.302C97.594 28.302 96.23 27.158 95.35 25.882V31.58H93.656ZM99.398 26.784C101.598 26.784 103.402 25.156 103.402 22.406V22.362C103.402 19.678 101.554 17.962 99.398 17.962C97.286 17.962 95.284 19.744 95.284 22.34V22.384C95.284 25.024 97.286 26.784 99.398 26.784ZM114.886 28.28C113.104 28.28 112.004 27.466 111.212 26.52V28.06H107.868V12H111.212V17.962C112.026 16.862 113.148 16.048 114.886 16.048C117.636 16.048 120.254 18.204 120.254 22.142V22.186C120.254 26.124 117.68 28.28 114.886 28.28ZM114.028 25.442C115.59 25.442 116.91 24.166 116.91 22.186V22.142C116.91 20.184 115.59 18.886 114.028 18.886C112.466 18.886 111.168 20.184 111.168 22.142V22.186C111.168 24.144 112.466 25.442 114.028 25.442ZM122.324 28.06V24.54H125.888V28.06H122.324ZM128.814 14.97V12H132.334V14.97H128.814ZM128.902 28.06V16.268H132.246V28.06H128.902ZM141.178 28.324C137.526 28.324 134.82 25.618 134.82 22.23V22.186C134.82 18.798 137.548 16.048 141.222 16.048C144.874 16.048 147.58 18.754 147.58 22.142V22.186C147.58 25.574 144.852 28.324 141.178 28.324ZM141.222 25.442C143.136 25.442 144.28 23.968 144.28 22.23V22.186C144.28 20.448 143.026 18.93 141.178 18.93C139.264 18.93 138.12 20.404 138.12 22.142V22.186C138.12 23.924 139.374 25.442 141.222 25.442Z" fill="white"/>
</svg>
