<svg width="20" height="20" viewBox="0 0 20 20" fill="none" xmlns="http://www.w3.org/2000/svg">
<path fill-rule="evenodd" clip-rule="evenodd" d="M0.625105 9.38005C0.279923 9.38005 9.82439e-05 9.10023 9.82439e-05 8.75506C-0.0109361 6.42973 0.907929 4.19646 2.55223 2.55219C4.19652 0.907915 6.42983 -0.0109359 8.75519 9.82423e-05C9.10037 9.82423e-05 9.3802 0.279919 9.3802 0.625095V8.75506C9.3802 9.10023 9.10037 9.38005 8.75519 9.38005H0.625105ZM1.82481 11.1319C1.82481 10.7867 2.10463 10.5069 2.44981 10.5069C2.79499 10.5069 3.07482 10.7867 3.07482 11.1319C3.07482 15.555 6.30673 18.75 10.7293 18.75C15.1569 18.7443 18.7448 15.1564 18.7503 10.7288C18.7503 6.30632 15.6653 3.07477 11.2421 3.07477C10.8969 3.07477 10.6171 2.79495 10.6171 2.44977C10.6171 2.1046 10.8969 1.82478 11.2421 1.82478C16.354 1.82478 20 5.61726 20 10.7288C19.9945 15.8466 15.8472 19.9941 10.7293 20C5.61703 20 1.82481 16.2441 1.82481 11.1319ZM8.12987 8.13006H1.27574V8.12975C1.55823 4.46776 4.46783 1.55821 8.12987 1.27572V8.13006Z" fill="#A1A4AC"/>
</svg>
