<svg width="20" height="20" viewBox="0 0 20 20" fill="none" xmlns="http://www.w3.org/2000/svg">
<g opacity="0.9">
<path fill-rule="evenodd" clip-rule="evenodd" d="M19.8578 9.92885C19.8578 15.4124 15.4125 19.8577 9.92897 19.8577C4.44542 19.8577 0.00012207 15.4124 0.00012207 9.92885C0.00012207 4.4453 4.44542 0 9.92897 0C15.4125 0 19.8578 4.4453 19.8578 9.92885ZM14.6476 7.50885C15.1276 7.45186 15.5853 7.32425 16.0107 7.13558C15.6927 7.6115 15.2904 8.02938 14.8263 8.36389C14.8309 8.46549 14.8332 8.56796 14.8332 8.6708C14.8332 11.8073 12.446 15.4235 8.08065 15.4235C6.74048 15.4235 5.49269 15.0308 4.44295 14.3572C4.62826 14.3793 4.81764 14.3904 5.00879 14.3904C6.12101 14.3904 7.14419 14.0112 7.95658 13.3745C6.91782 13.3552 6.04154 12.669 5.73959 11.7264C5.88437 11.754 6.03287 11.7687 6.18614 11.7687C6.40225 11.7687 6.61233 11.7398 6.81127 11.6853C5.72579 11.4674 4.90738 10.5083 4.90738 9.35841C4.90738 9.3485 4.90738 9.33841 4.90756 9.32832C5.22738 9.50655 5.59357 9.61327 5.98242 9.62549C5.34596 9.2 4.92667 8.47327 4.92667 7.65009C4.92667 7.21522 5.04384 6.80726 5.24809 6.45681C6.41871 7.8931 8.16756 8.83788 10.1399 8.93681C10.0992 8.76301 10.0782 8.58195 10.0782 8.39593C10.0782 7.08549 11.141 6.02266 12.4514 6.02266C13.1345 6.02266 13.7513 6.3108 14.1842 6.77186C14.7245 6.66549 15.2327 6.46814 15.6913 6.19611C15.5138 6.75062 15.1376 7.21522 14.6476 7.50885Z" fill="white"/>
</g>
</svg>
