<svg width="20" height="20" viewBox="0 0 20 20" fill="none" xmlns="http://www.w3.org/2000/svg">
<g opacity="0.9">
<path fill-rule="evenodd" clip-rule="evenodd" d="M9.99857 19.9971C15.5206 19.9971 19.9971 15.5206 19.9971 9.99857C19.9971 4.47651 15.5206 0 9.99857 0C4.47651 0 0 4.47651 0 9.99857C0 15.5206 4.47651 19.9971 9.99857 19.9971ZM15.2308 8.06911C15.2308 7.23093 14.5518 6.55156 13.7141 6.55156H6.59797C5.76042 6.55156 5.08152 7.2311 5.08152 8.06911V12.1385C5.08152 12.9767 5.76055 13.656 6.59797 13.656H13.714C14.5519 13.656 15.2307 12.9765 15.2307 12.1385V8.06911H15.2308ZM9.14093 7.9984V11.8205L12.0395 9.90954L9.14093 7.9984Z" fill="white"/>
</g>
</svg>
